{"title":"The 7th Voyage of Sinbad (1958) BDRip XviD AC3-FWOLF","uid":11286089,"size":1463053824,"categoryP":"video","categoryS":"movies","magnet":"?xt=urn:btih:f3c9846a7ecb10b4193f65049361221f722e61df&amp;dn=The+7th+Voyage+of+Sinbad+%281958%29+BDRip+XviD+AC3-FWOLF&amp;tr=udp%3A%2F%2Ftracker.openbittorrent.com%3A80&amp;tr=udp%3A%2F%2Fopen.demonii.com%3A1337&amp;tr=udp%3A%2F%2Ftracker.coppersurfer.tk%3A6969&amp;tr=udp%3A%2F%2Fexodus.desync.com%3A6969","seeders":0,"leechers":0,"uploader":"TvTeam","files":7,"time":1414282357,"description":" &lt;a href=&quot;http://www.torrenting.com&quot; rel=&quot;nofollow&quot; target=&quot;_NEW&quot;&gt;http://www.torrenting.com&lt;/a&gt;\n\nSign up is OPEN - for time being. Come and have fun.\n\n\n....The 7th Voyage of Sinbad (1958) BDRip XviD AC3-FWOLF\n\nimdb.... &lt;a href=&quot;\nhttp://www.imdb.com/title/tt0051337/&quot; rel=&quot;nofollow&quot; target=&quot;_NEW&quot;&gt;\nhttp://www.imdb.com/title/tt0051337/&lt;/a&gt;\n\n\nWhen a princess is shrunken by an evil wizard, \nSinbad must undertake a quest to an island of \nmonsters to cure her and prevent a war.\n\n\nDirector: Nathan Juran\n\nWriters:  Ken Kolb    \n\nStars:    Kerwin Mathews, Kathryn Grant, Richard Eyer\n\n\nFormat                                   : AVI\nFormat/Info                              : Audio Video Interleave\nFile size                                : 1.35 GiB\nDuration                                 : 1h 28mn\nOverall bit rate                         : 2 189 Kbps\n\nVideo\nID                                       : 0\nFormat                                   : MPEG-4 Visual\nFormat profile                           : Advanced Simple@L5\nFormat settings, BVOP                    : 2\nFormat settings, QPel                    : Yes\nFormat settings, GMC                     : No warppoints\nFormat settings, Matrix                  : Default (H.263)\nCodec ID                                 : XVID\nCodec ID/Hint                            : XviD\nDuration                                 : 1h 28mn\nBit rate                                 : 1 733 Kbps\nWidth                                    : 720 pixels\nHeight                                   : 384 pixels\nDisplay aspect ratio                     : 1.85:1\nFrame rate                               : 23.976 fps\nColor space                              : YUV\nChroma subsampling                       : 4:2:0\nBit depth                                : 8 bits\nScan type                                : Progressive\nCompression mode                         : Lossy\nBits/(Pixel*Frame)                       : 0.261\nStream size                              : 1.07 GiB (79%)\nWriting library                          : XviD 1.2.1 (UTC 2008-12-04)\n\nAudio\nID                                       : 1\nFormat                                   : AC-3\nFormat/Info                              : Audio Coding 3\nMode extension                           : CM (complete main)\nFormat settings, Endianness              : Big\nCodec ID                                 : 2000\nDuration                                 : 1h 28mn\nBit rate mode                            : Constant\nBit rate                                 : 448 Kbps\nChannel(s)                               : 6 channels\nChannel positions                        : Front: L C R, Side: L R, LFE\nSampling rate                            : 48.0 KHz\nBit depth                                : 16 bits\nCompression mode                         : Lossy\nStream size                              : 282 MiB (20%)\nAlignment                                : Aligned on interleaves\nInterleave, duration                     : 64 ms (1.53 video frames)\nInterleave, preload duration             : 192 ms\nTitle                                    : English\n\n\n\n\nEncoded....................FWOLF              \n\nSource.....................BD-REMUX.H264.1080p 19.26 GB (Thanks!)\n\nSample.....................Yes\n\n\nSubs.......................(srt) English,Greek\n\n\n\n[img]http://s29.postimg.org/i6ap4q9fr/image.png[/img]\n\n\n\n\n[img]http://s27.postimg.org/ytvl1qhwj/image.png[/img]\n\n\n\n\nGreetz To: PsiX | Blacksheep | CFR | tomcat-12...\n.....and all P2P Encoders and Groups","torrent":{"xt":"urn:btih:f3c9846a7ecb10b4193f65049361221f722e61df","amp;dn":"The+7th+Voyage+of+Sinbad+%281958%29+BDRip+XviD+AC3-FWOLF","amp;tr":["udp%3A%2F%2Ftracker.openbittorrent.com%3A80","udp%3A%2F%2Fopen.demonii.com%3A1337","udp%3A%2F%2Ftracker.coppersurfer.tk%3A6969","udp%3A%2F%2Fexodus.desync.com%3A6969"],"infoHash":"f3c9846a7ecb10b4193f65049361221f722e61df","infoHashBuffer":{"type":"Buffer","data":[243,201,132,106,126,203,16,180,25,63,101,4,147,97,34,31,114,46,97,223]},"announce":[],"urlList":[]}}